<svg xmlns="http://www.w3.org/2000/svg" viewBox="0 0 248.98 36.85">
  <path d="M22.13 10.28l-5.35 7.75v-7.75h-3.26v16.3h3.26v-4.94l1.81-2.49 3.24 7.43h3.57l-4.41-9.92 4.48-6.38zM36.03 26.58h3.29l-4.73-16.32h-3.98l-4.8 16.32h3.02l1.05-3.91h5.07l1.08 3.91zm-5.46-6.41l1.83-6.74h.07l1.81 6.74h-3.71zM52.26 26.58v-16.3h-2.92v9.85h-.05l-5.62-9.85h-3.23v16.3h2.91V15.9h.04l6.13 10.68zM60.08 24.17c-1.9 0-3.09-.75-4.16-1.58l-1.67 2.28c1.53 1.44 3.52 1.97 5.69 1.97 3.09 0 5.83-1.81 5.83-5.05 0-2.01-1.33-3.52-3.66-4.52l-1.87-.82c-1.3-.55-2.15-1.08-2.15-2.12 0-1.19.82-1.78 2.15-1.78 1.23 0 2.29.59 3.36 1.39l1.69-2.26C63.9 10.5 62.23 10 60.37 10c-3.34 0-5.39 2.19-5.39 4.8 0 2.08 1.1 3.5 3.22 4.37l2.2.92c1.21.52 2.1 1.05 2.1 2.26 0 1.11-1.05 1.82-2.42 1.82zM70.63 22.67h5.08l1.07 3.91h3.29l-4.73-16.32h-3.97l-4.8 16.32h3.02l1.04-3.91zm2.52-9.24h.07l1.81 6.74h-3.7l1.82-6.74zM91.53 23.87h-6.86V10.28H81.4v16.29h10.13zM103.78 23.87h-6.86V10.28h-3.27v16.29h10.13zM105.73 10.28H109v16.3h-3.27zM116.98 24.17c-1.9 0-3.09-.75-4.16-1.58l-1.67 2.28c1.53 1.44 3.52 1.97 5.69 1.97 3.09 0 5.83-1.81 5.83-5.05 0-2.01-1.33-3.52-3.66-4.52l-1.87-.82c-1.3-.55-2.15-1.08-2.15-2.12 0-1.19.82-1.78 2.15-1.78 1.23 0 2.29.59 3.36 1.39l1.69-2.26c-1.4-1.17-3.06-1.67-4.92-1.67-3.34 0-5.39 2.19-5.39 4.8 0 2.08 1.1 3.5 3.22 4.37l2.2.92c1.21.52 2.1 1.05 2.1 2.26 0 1.1-1.05 1.81-2.42 1.81zM130.56 26.85c3.06 0 5.62-1.6 5.62-4.64v-4.48h-5.78v2.36h2.72v1.87c0 1.4-.68 2.29-2.52 2.29-1.71 0-2.69-1.05-2.69-2.69v-6.29c0-1.6 1.03-2.67 2.72-2.67 1.49 0 2.53.91 2.53 2.28v.71h3V14.5c0-3.01-2.63-4.5-5.6-4.5-3.25 0-5.92 1.85-5.92 5.21v6.42c0 3.64 2.72 5.22 5.92 5.22zM140.97 22.67h5.08l1.07 3.91h3.29l-4.73-16.32h-3.98l-4.8 16.32h3.02l1.05-3.91zm2.51-9.24h.07l1.81 6.74h-3.7l1.82-6.74zM161.86 23.88h-6.85v-13.6h-3.27v16.3h10.12zM173.7 23.88h-6.85v-13.6h-3.27v16.3h10.12zM185.86 23.88h-6.85v-4.27h5.43v-2.68h-5.43v-3.98h6.83v-2.67h-10.11v16.3h10.13zM191.72 20.36h1.97l2.97 6.22h3.52l-3.48-6.79c2.04-.62 3.02-2.38 3.02-4.62 0-2.9-1.76-4.89-5.25-4.89h-6.01v16.3h3.27v-6.22zm0-7.52h2.35c1.67 0 2.42 1 2.42 2.54 0 1.71-.85 2.56-2.51 2.56h-2.26v-5.1zM202.4 10.28h3.27v16.3h-3.27zM211.24 22.67h5.07l1.08 3.91h3.29l-4.73-16.32h-3.98l-4.8 16.32h3.01l1.06-3.91zm2.52-9.24h.07l1.8 6.74h-3.71l1.84-6.74zM230.72 23.17c2.62 0 4.75-2.12 4.75-4.75 0-2.62-2.13-4.74-4.75-4.74s-4.74 2.12-4.74 4.74c-.01 2.63 2.11 4.75 4.74 4.75z"/>
</svg>
