<svg xmlns="http://www.w3.org/2000/svg" viewBox="0 0 319.35 36.85">
  <path d="M298.96 13.72c-2.62 0-4.74 2.12-4.74 4.75 0 2.62 2.12 4.75 4.74 4.75s4.75-2.13 4.75-4.75c0-2.63-2.13-4.75-4.75-4.75zM15.64 26.54h3.25v-6.85h5.4v-2.62h-5.4v-4.14h6.81v-2.62H15.64zM28.02 10.31h3.26v16.23h-3.26zM42.16 20.12h-.05l-5.6-9.81H33.3v16.22h2.89V15.91h.05l6.1 10.62h2.73V10.31h-2.91zM60.76 10.31h3.26v16.23h-3.26zM55.84 20.12h-.04l-5.6-9.81h-3.21v16.22h2.89V15.91h.05l6.1 10.62h2.72V10.31h-2.91zM73.6 17.27l-1.86-.82c-1.3-.54-2.14-1.07-2.14-2.11 0-1.19.82-1.78 2.14-1.78 1.23 0 2.27.59 3.34 1.39l1.69-2.26c-1.39-1.16-3.05-1.66-4.89-1.66-3.32 0-5.38 2.18-5.38 4.78 0 2.07 1.09 3.48 3.21 4.35l2.19.91c1.2.52 2.09 1.05 2.09 2.25 0 1.12-1.05 1.82-2.41 1.82-1.89 0-3.07-.75-4.14-1.58l-1.66 2.28c1.52 1.43 3.5 1.96 5.67 1.96 3.07 0 5.81-1.8 5.81-5.03-.01-2-1.33-3.5-3.66-4.5zM87.4 16.82h-5.15v-6.51H79v16.22h3.25v-6.87h5.15v6.87h3.25V10.31H87.4zM283.2 17.05l-2.91-6.74h-3.43l4.52 9.65v6.58h3.26v-6.55l4.53-9.68h-3.05zM106.4 20.13h-.05l-5.6-9.81h-3.2v16.23h2.89V15.92h.04l6.1 10.63h2.73V10.32h-2.91zM115.08 10.3l-4.78 16.25h3l1.05-3.89h5.05l1.07 3.89h3.28l-4.71-16.25h-3.96zm-.05 9.88l1.82-6.71h.07l1.8 6.71h-3.69zM122.64 12.93h4.32v13.61h3.25V12.93h4.31v-2.62h-11.88zM136.59 10.31h3.26v16.23h-3.26zM147.88 10.04c-3.28 0-5.91 1.84-5.91 5.46v5.98c0 3.83 2.71 5.33 5.94 5.33 3.21 0 5.96-1.68 5.96-5.46v-5.99c0-3.78-2.78-5.32-5.99-5.32zm2.71 11.4c0 1.62-1 2.68-2.67 2.68-1.73 0-2.68-1.02-2.68-2.71v-5.98c0-1.69.9-2.73 2.61-2.73 1.62 0 2.73.94 2.73 2.6v6.14zM164.51 20.12h-.04l-5.6-9.81h-3.21v16.23h2.89V15.91h.05l6.09 10.63h2.73V10.31h-2.91zM173.19 10.29l-4.78 16.25h3.01l1.05-3.9h5.05l1.07 3.9h3.28l-4.71-16.25h-3.97zm-.05 9.88l1.82-6.71h.07l1.8 6.71h-3.69zM186.55 10.31h-3.25v16.23h10.09v-2.68h-6.84zM206.01 20.08h2.71v1.86c0 1.39-.68 2.28-2.5 2.28-1.7 0-2.68-1.05-2.68-2.68v-6.26c0-1.59 1.02-2.67 2.7-2.67 1.49 0 2.53.92 2.53 2.28v.7h2.98v-1.07c0-3-2.61-4.49-5.57-4.49-3.23 0-5.89 1.85-5.89 5.19v6.4c0 3.62 2.71 5.18 5.89 5.18 3.05 0 5.6-1.59 5.6-4.62v-4.46h-5.76v2.36zM217.26 10.29l-4.78 16.25h3.01l1.05-3.89h5.05l1.07 3.89h3.28l-4.71-16.25h-3.97zm-.05 9.88l1.82-6.71h.07l1.79 6.71h-3.68zM230.63 10.32h-3.26v16.22h10.09v-2.68h-6.83zM243.15 10.32h-3.25v16.22h10.07v-2.68h-6.82zM255.46 19.6h5.42v-2.66h-5.42v-3.96h6.8v-2.66h-10.05v16.22h10.08v-2.68h-6.83zM275.74 15.19c0-2.89-1.76-4.87-5.24-4.87h-5.99v16.22h3.26v-6.19h1.96l2.96 6.19h3.5l-3.46-6.76c2.03-.6 3.01-2.36 3.01-4.59zm-5.72 2.75h-2.25v-5.07h2.34c1.66 0 2.41 1 2.41 2.52 0 1.71-.84 2.55-2.5 2.55z"/>
</svg>
