<svg xmlns="http://www.w3.org/2000/svg" viewBox="0 0 322.58 36.85">
  <path d="M304.31 13.72c-2.63 0-4.75 2.13-4.75 4.75s2.12 4.74 4.75 4.74c2.62 0 4.74-2.12 4.74-4.74 0-2.63-2.12-4.75-4.74-4.75zM13.53 26.55h3.25v-6.86h5.4v-2.61h-5.4v-4.15h6.81v-2.61H13.53zM25.91 10.32h3.26v16.22h-3.26zM40.04 20.13h-.05l-5.6-9.81h-3.2v16.22h2.89V15.92h.04l6.1 10.62h2.73V10.32h-2.91zM44.87 10.32v16.22h10.08v-2.68h-6.83V10.32zM60.54 10.29l-4.77 16.25h3l1.05-3.89h5.05l1.07 3.89h3.28l-4.71-16.25h-3.97zm-.04 9.88l1.82-6.71h.07l1.8 6.71H60.5zM79.27 20.13h-.05l-5.6-9.81h-3.21v16.22h2.89V15.92h.05l6.1 10.62h2.73V10.32h-2.91zM95.7 15.08c0-3.28-2.42-4.76-5.51-4.76h-5.94v16.22h5.94c3.09 0 5.51-1.57 5.51-5.05v-6.41zm-3.28 6.32c0 1.2-.75 2.52-2.56 2.52H87.5V12.93h2.32c1.73 0 2.59 1.07 2.59 2.5v5.97zM104.71 17.28l-1.87-.82c-1.3-.54-2.14-1.06-2.14-2.11 0-1.19.82-1.78 2.14-1.78 1.23 0 2.28.59 3.35 1.39l1.69-2.25c-1.39-1.16-3.05-1.66-4.9-1.66-3.32 0-5.37 2.18-5.37 4.78 0 2.07 1.09 3.49 3.21 4.35l2.18.91c1.21.52 2.1 1.04 2.1 2.25 0 1.12-1.05 1.82-2.42 1.82-1.89 0-3.07-.75-4.14-1.57l-1.66 2.28c1.52 1.43 3.51 1.96 5.67 1.96 3.07 0 5.8-1.79 5.8-5.03 0-2.01-1.32-3.51-3.64-4.52zM115.22 10.32v16.22h2.89V15.91h.05l6.09 10.63h2.74V10.32h-2.92v9.81h-.04l-5.6-9.81zM136.71 10.3h-3.95l-4.78 16.25h3l1.05-3.89h5.05l1.07 3.89h3.28l-4.72-16.25zm-4 9.87l1.82-6.71h.07l1.8 6.71h-3.69zM140.31 12.92h4.33v13.62h3.25V12.92h4.3v-2.61h-11.88zM154.26 10.31h3.26v16.23h-3.26zM171.54 21.35v-5.99c0-3.78-2.77-5.32-5.98-5.32-3.28 0-5.92 1.84-5.92 5.46v5.99c0 3.83 2.71 5.33 5.94 5.33 3.21-.01 5.96-1.7 5.96-5.47zm-3.27.09c0 1.62-1 2.68-2.67 2.68-1.73 0-2.68-1.02-2.68-2.71v-5.98c0-1.69.9-2.73 2.61-2.73 1.62 0 2.73.93 2.73 2.59v6.15zM182.14 20.12l-5.6-9.81h-3.2v16.23h2.88V15.91h.05l6.1 10.63h2.73V10.31h-2.91v9.81zM194.82 10.29h-3.96l-4.78 16.25h3.01l1.05-3.9h5.05l1.07 3.9h3.28l-4.72-16.25zm-4 9.87l1.82-6.71h.07l1.8 6.71h-3.69zM211.06 23.85h-6.83V10.31h-3.25v16.23h10.08zM218.84 20.07h2.71v1.86c0 1.39-.68 2.28-2.51 2.28-1.71 0-2.68-1.05-2.68-2.68v-6.26c0-1.59 1.02-2.67 2.7-2.67 1.48 0 2.53.92 2.53 2.28v.7h2.98v-1.07c0-3-2.61-4.49-5.57-4.49-3.23 0-5.89 1.85-5.89 5.19v6.4c0 3.62 2.71 5.18 5.89 5.18 3.05 0 5.6-1.59 5.6-4.62v-4.46h-5.76v2.36zM234.05 10.29h-3.96l-4.78 16.25h3.01l1.05-3.89h5.05l1.07 3.89h3.27l-4.71-16.25zm-4 9.88l1.82-6.71h.07l1.79 6.71h-3.68zM250.3 23.86h-6.83V10.31h-3.26v16.23h10.09zM262.81 23.85h-6.83V10.32h-3.25v16.22h10.08zM275.13 23.85h-6.83v-4.26h5.41v-2.65h-5.41v-3.96h6.8v-2.66h-10.06v16.22h10.09zM288.57 15.18c0-2.89-1.76-4.86-5.24-4.86h-5.99v16.22h3.26v-6.19h1.95l2.96 6.19h3.5l-3.46-6.76c2.04-.61 3.02-2.37 3.02-4.6zm-5.72 2.75h-2.25v-5.07h2.34c1.66 0 2.41 1 2.41 2.52.01 1.72-.83 2.55-2.5 2.55zM290.76 10.32h3.25v16.22h-3.25z"/>
</svg>
